<svg t="1618420123120" class="icon" viewBox="0 0 1024 1024" version="1.1" xmlns="http://www.w3.org/2000/svg" p-id="10361" width="200" height="200"><path d="M512 337.122743c-94.169966 0-170.882194 78.262857-170.882194 174.337463S417.830034 685.797669 512 685.797669s170.882194-78.262857 170.882194-174.337463S606.169966 337.122743 512 337.122743z m0 283.905463c-59.253029 0-107.39712-49.116891-107.39712-109.568 0-60.451109 48.142629-109.568 107.39712-109.568 59.253029 0 107.39712 49.116891 107.39712 109.568 0 60.451109-48.142629 109.568-107.39712 109.568z m452.335909-125.760366C888.151771 347.917166 708.805486 198.948571 512 198.948571S135.848229 347.917166 60.193646 495.26784L51.2 512l8.993646 16.73216C135.848229 676.082834 315.194514 825.051429 512 825.051429c196.805486 0 376.151771-149.508389 452.335909-296.319269L972.8 512l-8.464091-16.73216zM512 755.963611c-161.888549 0-315.841097-123.061394-385.674971-243.963611 70.363429-121.442011 223.787886-243.963611 385.674971-243.963611 161.888549 0 315.841097 122.5216 385.674971 243.963611C827.841097 632.902217 673.887086 755.963611 512 755.963611z" p-id="10362"></path></svg>